<?xml version="1.0" encoding="utf-8"?>
<!-- Generator: Adobe Illustrator 24.1.0, SVG Export Plug-In . SVG Version: 6.00 Build 0)  -->
<svg version="1.1" id="Layer_1" xmlns="http://www.w3.org/2000/svg" xmlns:xlink="http://www.w3.org/1999/xlink" x="0px" y="0px"
	 viewBox="0 0 223 150" style="enable-background:new 0 0 223 150;" xml:space="preserve">
<style type="text/css">
	.st0{fill:#FFFFFF;stroke:#4D4D4D;stroke-width:1.104;stroke-linecap:round;stroke-miterlimit:10;}
	.st1{fill:none;stroke:#E27A13;stroke-width:1.655;stroke-linecap:round;stroke-linejoin:round;}
	.st2{fill:#E6E6E6;stroke:#4D4D4D;stroke-width:1.104;stroke-linecap:round;stroke-miterlimit:10;}
	.st3{fill:#E6E6E6;}
	.st4{fill:#464545;}
	.st5{fill:#FFFFFF;}
	.st6{fill:none;stroke:#464545;}
	.st7{fill:none;stroke:#4D4D4D;}
	.st8{fill:#CCCCCC;}
	.st9{fill:#4D4D4D;}
</style>
<g id="Group_469_1_" transform="translate(-2.448 -32.947)">
	<g id="Group_460_1_" transform="translate(3 33.773)">
		<path id="Rectangle_236_1_" class="st0" d="M35.2,32.8h14.4c2.2,0,4,1.8,4,4v14.4c0,2.2-1.8,4-4,4H35.2c-2.2,0-4-1.8-4-4V36.8
			C31.2,34.6,33,32.8,35.2,32.8z"/>
		<path id="Path_149_1_" class="st1" d="M36.2,44.8l5,4.7l7.1-9.7"/>
	</g>
	<g id="Group_464_1_" transform="translate(3 63.773)">
		<path id="Rectangle_236-2_1_" class="st2" d="M34.7,33.1h14.4c2.2,0,4,1.8,4,4v14.4c0,2.2-1.8,4-4,4H34.7c-2.2,0-4-1.8-4-4V37.1
			C30.7,34.9,32.5,33.1,34.7,33.1z"/>
	</g>
	<g id="Group_463_1_" transform="translate(3 93.773)">
		<path id="Rectangle_236-3_1_" class="st2" d="M34.7,33.1h14.4c2.2,0,4,1.8,4,4v14.4c0,2.2-1.8,4-4,4H34.7c-2.2,0-4-1.8-4-4V37.1
			C30.7,34.9,32.5,33.1,34.7,33.1z"/>
	</g>
	<g id="Group_459_1_" transform="translate(35 35.773)">
		<path id="Rectangle_236-4_1_" class="st2" d="M34.7,31.1h120.4c2.2,0,4,1.8,4,4v14.4c0,2.2-1.8,4-4,4H34.7c-2.2,0-4-1.8-4-4V35.1
			C30.7,32.9,32.5,31.1,34.7,31.1z"/>
	</g>
	<g id="Group_461_1_" transform="translate(35 63.773)">
		<path id="Rectangle_236-5_1_" class="st2" d="M34.7,33.1h120.4c2.2,0,4,1.8,4,4v14.4c0,2.2-1.8,4-4,4H34.7c-2.2,0-4-1.8-4-4V37.1
			C30.7,34.9,32.5,33.1,34.7,33.1z"/>
	</g>
	<g id="Group_462_1_" transform="translate(35 93.773)">
		<path id="Rectangle_236-6_1_" class="st2" d="M34.7,33.1h120.4c2.2,0,4,1.8,4,4v14.4c0,2.2-1.8,4-4,4H34.7c-2.2,0-4-1.8-4-4V37.1
			C30.7,34.9,32.5,33.1,34.7,33.1z"/>
	</g>
</g>
</svg>
