<?xml version="1.0" encoding="utf-8"?>
<!-- Generator: Adobe Illustrator 24.1.0, SVG Export Plug-In . SVG Version: 6.00 Build 0)  -->
<svg version="1.1" id="Layer_1" xmlns="http://www.w3.org/2000/svg" xmlns:xlink="http://www.w3.org/1999/xlink" x="0px" y="0px"
	 viewBox="0 0 223 150" style="enable-background:new 0 0 223 150;" xml:space="preserve">
<style type="text/css">
	.st0{fill:#FFFFFF;stroke:#4D4D4D;stroke-width:1.104;stroke-linecap:round;stroke-miterlimit:10;}
	.st1{fill:none;stroke:#E27A13;stroke-width:1.655;stroke-linecap:round;stroke-linejoin:round;}
	.st2{fill:#E6E6E6;stroke:#4D4D4D;stroke-width:1.104;stroke-linecap:round;stroke-miterlimit:10;}
	.st3{fill:#E6E6E6;}
	.st4{fill:#464545;}
	.st5{fill:#FFFFFF;}
	.st6{fill:none;stroke:#464545;}
	.st7{fill:none;stroke:#4D4D4D;}
	.st8{fill:#CCCCCC;}
	.st9{fill:#4D4D4D;}
</style>
<g>
	<g id="Group_204" transform="translate(53.431)">
		<g id="Rectangle_148" transform="translate(0)">
			<path class="st3" d="M49.1,14.2h71.4c3.3,0,6,2.7,6,6v99c0,3.3-2.7,6-6,6H49.1c-3.3,0-6-2.7-6-6v-99
				C43.1,16.9,45.8,14.2,49.1,14.2z"/>
			<path class="st7" d="M49.1,14.7h71.4c3,0,5.5,2.5,5.5,5.5v99c0,3-2.5,5.5-5.5,5.5H49.1c-3,0-5.5-2.5-5.5-5.5v-99
				C43.6,17.2,46,14.7,49.1,14.7z"/>
		</g>
		<g id="Group_200" transform="translate(11.92 20.319)">
			<path id="Rectangle_137" class="st8" d="M53.5,14.2h47.7c1.2,0,2.2,1,2.2,2.2l0,0c0,1.2-1,2.2-2.2,2.2H53.5c-1.2,0-2.2-1-2.2-2.2
				l0,0C51.3,15.2,52.3,14.2,53.5,14.2z"/>
			<path id="Rectangle_145" class="st8" d="M45.2,14.2h0.1c1.2,0,2.2,1,2.2,2.2l0,0c0,1.2-1,2.2-2.2,2.2h-0.1c-1.2,0-2.2-1-2.2-2.2
				l0,0C43.1,15.2,44,14.2,45.2,14.2z"/>
			<path id="Rectangle_141" class="st8" d="M53.5,20h47.7c1.2,0,2.2,1,2.2,2.2l0,0c0,1.2-1,2.2-2.2,2.2H53.5c-1.2,0-2.2-1-2.2-2.2
				l0,0C51.3,21,52.3,20,53.5,20z"/>
			<path id="Rectangle_144" class="st8" d="M45.2,20h0.1c1.2,0,2.2,1,2.2,2.2l0,0c0,1.2-1,2.2-2.2,2.2h-0.1c-1.2,0-2.2-1-2.2-2.2
				l0,0C43.1,21,44,20,45.2,20z"/>
			<path id="Rectangle_142" class="st8" d="M53.5,25.7h47.7c1.2,0,2.2,1,2.2,2.2l0,0c0,1.2-1,2.2-2.2,2.2H53.5c-1.2,0-2.2-1-2.2-2.2
				l0,0C51.3,26.7,52.3,25.7,53.5,25.7z"/>
			<path id="Rectangle_143" class="st8" d="M45.2,25.7h0.1c1.2,0,2.2,1,2.2,2.2l0,0c0,1.2-1,2.2-2.2,2.2h-0.1c-1.2,0-2.2-1-2.2-2.2
				l0,0C43.1,26.7,44,25.7,45.2,25.7z"/>
		</g>
		<g id="Group_201" transform="translate(11.92 44.546)">
			<path id="Rectangle_137-2" class="st8" d="M53.5,14.2h47.7c1.2,0,2.2,1,2.2,2.2l0,0c0,1.2-1,2.2-2.2,2.2H53.5
				c-1.2,0-2.2-1-2.2-2.2l0,0C51.3,15.2,52.3,14.2,53.5,14.2z"/>
			<path id="Rectangle_145-2" class="st8" d="M45.2,14.2h0.1c1.2,0,2.2,1,2.2,2.2l0,0c0,1.2-1,2.2-2.2,2.2h-0.1
				c-1.2,0-2.2-1-2.2-2.2l0,0C43.1,15.2,44,14.2,45.2,14.2z"/>
			<path id="Rectangle_141-2" class="st8" d="M53.5,20h47.7c1.2,0,2.2,1,2.2,2.2l0,0c0,1.2-1,2.2-2.2,2.2H53.5c-1.2,0-2.2-1-2.2-2.2
				l0,0C51.3,21,52.3,20,53.5,20z"/>
			<path id="Rectangle_144-2" class="st8" d="M45.2,20h0.1c1.2,0,2.2,1,2.2,2.2l0,0c0,1.2-1,2.2-2.2,2.2h-0.1c-1.2,0-2.2-1-2.2-2.2
				l0,0C43.1,21,44,20,45.2,20z"/>
			<path id="Rectangle_142-2" class="st8" d="M53.5,25.7h47.7c1.2,0,2.2,1,2.2,2.2l0,0c0,1.2-1,2.2-2.2,2.2H53.5
				c-1.2,0-2.2-1-2.2-2.2l0,0C51.3,26.7,52.3,25.7,53.5,25.7z"/>
			<path id="Rectangle_143-2" class="st8" d="M45.2,25.7h0.1c1.2,0,2.2,1,2.2,2.2l0,0c0,1.2-1,2.2-2.2,2.2h-0.1
				c-1.2,0-2.2-1-2.2-2.2l0,0C43.1,26.7,44,25.7,45.2,25.7z"/>
		</g>
		<g id="Group_202" transform="translate(11.92 68.773)">
			<path id="Rectangle_137-3" class="st8" d="M53.5,14.2h47.7c1.2,0,2.2,1,2.2,2.2l0,0c0,1.2-1,2.2-2.2,2.2H53.5
				c-1.2,0-2.2-1-2.2-2.2l0,0C51.3,15.2,52.3,14.2,53.5,14.2z"/>
			<path id="Rectangle_145-3" class="st8" d="M45.2,14.2h0.1c1.2,0,2.2,1,2.2,2.2l0,0c0,1.2-1,2.2-2.2,2.2h-0.1
				c-1.2,0-2.2-1-2.2-2.2l0,0C43.1,15.2,44,14.2,45.2,14.2z"/>
			<path id="Rectangle_141-3" class="st8" d="M53.5,20h47.7c1.2,0,2.2,1,2.2,2.2l0,0c0,1.2-1,2.2-2.2,2.2H53.5c-1.2,0-2.2-1-2.2-2.2
				l0,0C51.3,21,52.3,20,53.5,20z"/>
			<path id="Rectangle_144-3" class="st8" d="M45.2,20h0.1c1.2,0,2.2,1,2.2,2.2l0,0c0,1.2-1,2.2-2.2,2.2h-0.1c-1.2,0-2.2-1-2.2-2.2
				l0,0C43.1,21,44,20,45.2,20z"/>
			<path id="Rectangle_142-3" class="st8" d="M53.5,25.7h47.7c1.2,0,2.2,1,2.2,2.2l0,0c0,1.2-1,2.2-2.2,2.2H53.5
				c-1.2,0-2.2-1-2.2-2.2l0,0C51.3,26.7,52.3,25.7,53.5,25.7z"/>
			<path id="Rectangle_143-3" class="st8" d="M45.2,25.7h0.1c1.2,0,2.2,1,2.2,2.2l0,0c0,1.2-1,2.2-2.2,2.2h-0.1
				c-1.2,0-2.2-1-2.2-2.2l0,0C43.1,26.7,44,25.7,45.2,25.7z"/>
		</g>
	</g>
	<g id="Group_203" transform="translate(0 55.488)">
		<g id="Rectangle_147" transform="translate(0 0)">
			<path class="st3" d="M49.1,14.2h89.1c3.3,0,6,2.7,6,6v54c0,3.3-2.7,6-6,6H49.1c-3.3,0-6-2.7-6-6v-54
				C43.1,16.9,45.8,14.2,49.1,14.2z"/>
			<path class="st7" d="M49.1,14.7h89.1c3,0,5.5,2.5,5.5,5.5v54c0,3-2.5,5.5-5.5,5.5H49.1c-3,0-5.5-2.5-5.5-5.5v-54
				C43.6,17.2,46,14.7,49.1,14.7z"/>
		</g>
		<g id="Polygon_3" transform="translate(97.481 38.527) rotate(180)">
			<path class="st3" d="M48.4,23.6h-88.9c-0.4,0-0.6-0.5-0.3-0.7L3.7-14c0.2-0.1,0.4-0.1,0.5,0l44.5,36.9
				C49,23.1,48.8,23.6,48.4,23.6z"/>
			<path class="st9" d="M3.9-13.6l-43.6,36.2c-0.2,0.2-0.1,0.5,0.2,0.5h86.9c0.3,0,0.4-0.3,0.2-0.5L3.9-13.6 M4.4-14.5l45,37.3
				c0.5,0.4,0.2,1.3-0.5,1.3H-41c-0.7,0-1-0.9-0.5-1.3l45-37.3C3.7-14.7,4.1-14.7,4.4-14.5z"/>
		</g>
	</g>
</g>
</svg>
