<?xml version="1.0" encoding="utf-8"?>
<!-- Generator: Adobe Illustrator 24.1.0, SVG Export Plug-In . SVG Version: 6.00 Build 0)  -->
<svg version="1.1" id="Layer_1" xmlns="http://www.w3.org/2000/svg" xmlns:xlink="http://www.w3.org/1999/xlink" x="0px" y="0px"
	 viewBox="0 0 223 150" style="enable-background:new 0 0 223 150;" xml:space="preserve">
<style type="text/css">
	.st0{fill:#FFFFFF;stroke:#4D4D4D;stroke-width:1.104;stroke-linecap:round;stroke-miterlimit:10;}
	.st1{fill:none;stroke:#E27A13;stroke-width:1.655;stroke-linecap:round;stroke-linejoin:round;}
	.st2{fill:#E6E6E6;stroke:#4D4D4D;stroke-width:1.104;stroke-linecap:round;stroke-miterlimit:10;}
	.st3{fill:#E6E6E6;}
	.st4{fill:#464545;}
	.st5{fill:#FFFFFF;}
	.st6{fill:none;stroke:#464545;}
	.st7{font-family:'Lato-Regular';}
	.st8{font-size:16px;}
	.st9{fill:none;stroke:#4D4D4D;}
	.st10{fill:#CCCCCC;}
	.st11{fill:#4D4D4D;}
</style>
<g id="Group_198" transform="translate(-212 -678)">
	<g id="Union_1" transform="translate(212 678)">
		<path class="st3" d="M146,71H20.7c-3.6,0-6.5-2.9-6.5-6.5v-9.8v-0.2L14,54.3l-7.2-6.1l7.2-6.1l0.2-0.1v-0.2v-1.2
			c0-3.6,2.9-6.5,6.5-6.5H146c3.6,0,6.5,2.9,6.5,6.5v24C152.5,68.1,149.6,71,146,71z"/>
		<path class="st4" d="M146,70.5c3.3,0,6-2.7,6-6v-24c0-3.3-2.7-6-6-6H20.7c-3.3,0-6,2.7-6,6v1.2v0.5l-0.4,0.3l-6.8,5.7l6.8,5.7
			l0.4,0.3v0.5v9.8c0,3.3,2.7,6,6,6H146 M146,71.5H20.7c-3.9,0-7-3.1-7-7v-9.8L6,48.2l7.7-6.5v-1.2c0-3.9,3.1-7,7-7H146
			c3.9,0,7,3.1,7,7v24C153,68.4,149.9,71.5,146,71.5z"/>
	</g>
	<g id="Union_2" transform="translate(423 761) rotate(180)">
		<path class="st3" d="M116,4H7.8C4.2,4,1.3,1.1,1.3-2.5v-1.2v-0.2L1.1-4.1l-6.4-6.1l6.4-6.1l0.2-0.1v-0.2v-9.8
			c0-3.6,2.9-6.5,6.5-6.5H116c3.6,0,6.5,2.9,6.5,6.5v24C122.5,1.1,119.6,4,116,4z"/>
		<path class="st4" d="M116,3.5c3.3,0,6-2.7,6-6v-24c0-3.3-2.7-6-6-6H7.8c-3.3,0-6,2.7-6,6v9.8v0.4l-0.3,0.3l-6,5.8l6,5.8l0.3,0.3
			v0.4v1.2c0,3.3,2.7,6,6,6H116 M116,4.5H7.8c-3.9,0-7-3.1-7-7v-1.2L-6-10.2l6.8-6.5v-9.8c0-3.9,3.1-7,7-7H116c3.9,0,7,3.1,7,7v24
			C123,1.4,119.9,4.5,116,4.5z"/>
	</g>
	<g id="Group_197" transform="translate(1)">
		<g id="Rectangle_139" transform="translate(312 731)">
			<path class="st5" d="M11,33.5h27c2.8,0,5,2.2,5,5v12c0,2.8-2.2,5-5,5H11c-2.8,0-5-2.2-5-5v-12C6,35.7,8.2,33.5,11,33.5z"/>
			<path class="st6" d="M11,34h27c2.5,0,4.5,2,4.5,4.5v12c0,2.5-2,4.5-4.5,4.5H11c-2.5,0-4.5-2-4.5-4.5v-12C6.5,36,8.5,34,11,34z"/>
		</g>
		<text transform="matrix(1 0 0 1 322 781.5)" class="st4 st7 st8">YES</text>
	</g>
	<g id="Group_196" transform="translate(-1)">
		<path id="Rectangle_140" class="st5" d="M374,764.5h27c2.8,0,5,2.2,5,5v12c0,2.8-2.2,5-5,5h-27c-2.8,0-5-2.2-5-5v-12
			C369,766.7,371.2,764.5,374,764.5z"/>
		<text transform="matrix(1 0 0 1 375 781.5)" class="st4 st7 st8">NO</text>
	</g>
</g>
</svg>
