<?xml version="1.0" encoding="utf-8"?>
<!-- Generator: Adobe Illustrator 24.1.0, SVG Export Plug-In . SVG Version: 6.00 Build 0)  -->
<svg version="1.1" id="Layer_1" xmlns="http://www.w3.org/2000/svg" xmlns:xlink="http://www.w3.org/1999/xlink" x="0px" y="0px"
	 viewBox="0 0 140 140" style="enable-background:new 0 0 140 140;" xml:space="preserve">
<style type="text/css">
	.st0{fill:none;stroke:#FFFFFF;stroke-width:3;stroke-linecap:round;stroke-linejoin:round;}
	.st1{fill:#FFFFFF;}
	.st2{fill:none;stroke:#FFFFFF;stroke-width:2.9271;stroke-linecap:round;stroke-linejoin:round;}
	.st3{fill:#CCCCCB;}
	.st4{fill:none;stroke:#FFFFFF;}
	.st5{fill:#E4823F;}
	.st6{fill:none;stroke:#E4823C;stroke-width:3;stroke-linecap:round;stroke-linejoin:round;}
	.st7{fill:#FFFFFF;stroke:#E4823C;stroke-miterlimit:10;}
	.st8{fill:none;stroke:#E4823C;stroke-width:2.9271;stroke-linecap:round;stroke-linejoin:round;}
</style>
<circle id="Ellipse_104_1_" class="st1" cx="70" cy="70" r="58.5"/>
<g id="Group_361_4_" transform="translate(-264 -1588)">
	<g id="Group_360_4_" transform="translate(1044 1620)">
		<path id="Path_233_4_" class="st6" d="M-678.8,47.2L-678.8,47.2c0-4.2-2.8-7.9-6.8-9l-7.2-1.9l-0.8-3.4c2.1-2,3.3-4.6,3.6-7.5h0.1
			c0.9,0,1.6-0.7,1.7-1.6l0.4-3.6c0.1-1-0.6-1.9-1.5-2c-0.1,0-0.1,0-0.2,0l0.2-4.5l0.9-0.9c1.1-1.2,1.1-2.7,0-4.5s-3.1-2.7-5.9-2.7
			c-2.3-0.1-4.5,0.5-6.4,1.8c-7.1,0.1-7.9,3.1-7.9,6.3c0,1.1,0.4,4.5,0.4,4.5h-0.2c-1,0-1.8,0.8-1.8,1.8c0,0.1,0,0.1,0,0.2l0.4,3.6
			c0.1,0.9,0.8,1.6,1.7,1.6h0.3c0.2,2.8,1.4,5.4,3.4,7.3l-0.9,3.5l-7.2,1.9c-1.2,0.3-2.4,0.9-3.4,1.7"/>
		<g id="Group_359_4_" transform="translate(0 32.345)">
			<path id="Path_234_4_" class="st6" d="M-743.5,31h9.2c0,0,4-15.3,4.6-22.6c-2.2-2.1-13.9-2.8-13.9-2.8V31z"/>
			<path id="Path_235_4_" class="st6" d="M-696.4,24.1l10.9-3c3.7-0.9,7.5,1,9,4.5l0,0l-15.6,7.7c-11.8,5.3-13.4,5.7-19,3.4
				l-21.9-8.1"/>
			<path id="Path_236_4_" class="st6" d="M-729.6,10.2l27.5,6.2c3.8,1,5.7,3,5.7,7.2v0.5l-3.8,1c-1.2,0.3-2.5,0.4-3.7,0.1l-12.3-2.7
				"/>
		</g>
	</g>
</g>
</svg>
