<?xml version="1.0" encoding="utf-8"?>
<!-- Generator: Adobe Illustrator 24.1.0, SVG Export Plug-In . SVG Version: 6.00 Build 0)  -->
<svg version="1.1" id="Layer_1" xmlns="http://www.w3.org/2000/svg" xmlns:xlink="http://www.w3.org/1999/xlink" x="0px" y="0px"
	 viewBox="0 0 140 140" style="enable-background:new 0 0 140 140;" xml:space="preserve">
<style type="text/css">
	.st0{fill:none;stroke:#FFFFFF;stroke-width:3;stroke-linecap:round;stroke-linejoin:round;}
	.st1{fill:#FFFFFF;}
	.st2{fill:none;stroke:#FFFFFF;stroke-width:2.9271;stroke-linecap:round;stroke-linejoin:round;}
	.st3{fill:#CCCCCB;}
	.st4{fill:none;stroke:#FFFFFF;}
	.st5{fill:#E4823F;}
	.st6{fill:none;stroke:#E4823C;stroke-width:3;stroke-linecap:round;stroke-linejoin:round;}
	.st7{fill:#FFFFFF;stroke:#E4823C;stroke-miterlimit:10;}
	.st8{fill:none;stroke:#E4823C;stroke-width:2.9271;stroke-linecap:round;stroke-linejoin:round;}
</style>
<g>
	<g transform="matrix(1, 0, 0, 1, 0, 0)">
		<circle id="Ellipse_105-2_1_" class="st5" cx="70" cy="70" r="58.5"/>
	</g>
	<g id="Group_349_1_" transform="translate(-425 -1860)">
		<g id="Group_348_4_" transform="translate(491 1891)">
			<g id="Group_345_4_" transform="translate(0 0)">
				<path id="Path_226_4_" class="st0" d="M13.7,41.8c1-1.2,1.6-2.7,1.6-4.3c0-2.5,1.4-2.9,1.4-2.9c0.7-1.9,1.2-3.8,1.4-5.8
					c0,0-0.1-1.3-1.2-1.3v-9.2c0-7.2-3.8-6.2-3.1-6.9c0-1.7-2-5.8-9.9-5.8C-4,5.5-8.6,13-8.6,18.2v9.2c-1.1,0-1.4,1.4-1.4,1.4
					c0.2,2,0.7,4,1.4,5.8c0,0,1.4,0.4,1.4,2.9S-5,43.1-3,44.8c0,1.4-1.4,8.4-5.6,10.2l-13.6,4.3c-2.8,1-4.9,3.3-5.5,6.2l-1.7,7"/>
			</g>
			<g id="Group_347_4_" transform="translate(44.168 37.318)">
				<path id="Path_227_4_" class="st0" d="M-18.1,35.2c0,0-11.4-5.3-11.4-9.1v-16l11.4-4.6l11.4,4.6v16
					C-6.7,29.9-18.1,35.2-18.1,35.2z"/>
				<g id="Group_346_4_" transform="translate(6.85 5.708)">
					<path id="Path_228_4_" class="st0" d="M-24.9,5.5l-4.6,2.3v5.7h4.6V5.5z"/>
					<path id="Path_229_4_" class="st0" d="M-24.9,13.5v8c1.7-0.9,3.2-2,4.6-3.4v-4.6H-24.9z"/>
				</g>
			</g>
		</g>
	</g>
</g>
</svg>
