<?xml version="1.0" encoding="utf-8"?>
<!-- Generator: Adobe Illustrator 24.1.0, SVG Export Plug-In . SVG Version: 6.00 Build 0)  -->
<svg version="1.1" id="Layer_1" xmlns="http://www.w3.org/2000/svg" xmlns:xlink="http://www.w3.org/1999/xlink" x="0px" y="0px"
	 viewBox="0 0 140 140" style="enable-background:new 0 0 140 140;" xml:space="preserve">
<style type="text/css">
	.st0{fill:none;stroke:#FFFFFF;stroke-width:3;stroke-linecap:round;stroke-linejoin:round;}
	.st1{fill:#FFFFFF;}
	.st2{fill:none;stroke:#FFFFFF;stroke-width:2.9271;stroke-linecap:round;stroke-linejoin:round;}
	.st3{fill:#CCCCCB;}
	.st4{fill:none;stroke:#FFFFFF;}
	.st5{fill:#E4823F;}
	.st6{fill:none;stroke:#E4823C;stroke-width:3;stroke-linecap:round;stroke-linejoin:round;}
	.st7{fill:#FFFFFF;stroke:#E4823C;stroke-miterlimit:10;}
	.st8{fill:none;stroke:#E4823C;stroke-width:2.9271;stroke-linecap:round;stroke-linejoin:round;}
</style>
<g id="Ellipse_108_1_" transform="translate(755 227)">
	<circle class="st1" cx="-685" cy="-157" r="58.5"/>
	<circle class="st1" cx="-685" cy="-157" r="58"/>
</g>
<g id="Group_363_4_" transform="translate(-112 -1588)">
	<g id="Group_362_4_" transform="translate(892 1855)">
		<path id="Path_237_4_" class="st6" d="M-733.1-194.1c1.1,0.9,4.2,4.5,5.8,5.8c5.5,4.6,12.7,9.7,13.9,10.4c1,0.7,2.2,1.1,3.5,1.2
			c1.3,0,3,0,3.5-1.2c2.2,2,5.5-0.6,5.8-3.5c1.8,1.6,6.1-0.4,5.8-3.5c2.1,1.4,6.2-0.2,4.6-3.5c-2-4.1-14-12.9-18.5-17.3
			c-2.5,0.9-2.7,2.1-4.6,2.3c-1.4,2.1-3.3,3.5-6.9,2.3s-0.2-6.7,2.3-9.2c5-5,8-6.1,13.9-3.5s10.4,4.6,10.4,4.6"/>
		<path id="Path_238_4_" class="st6" d="M-715.8-212.6h-13.9"/>
		<line id="Line_60_4_" class="st6" x1="-690.4" y1="-188.3" x2="-686.9" y2="-190.6"/>
		<path id="Path_239_4_" class="st6" d="M-695-184.9c-1.5-1.2-9.2-9.2-9.2-9.2"/>
		<path id="Path_240_4_" class="st6" d="M-700.8-181.4c-1.9-1.5-7.3-7.2-8.1-8.1"/>
		<path id="Path_241_4_" class="st6" d="M-706.5-177.9c-1.9-1.6-5.4-5.2-6.9-6.9"/>
		<path id="Path_242_4_" class="st6" d="M-743.5-191.8c3.6,0,9.2-0.1,9.2-0.1s4-15.6,4.6-23.1c-2.3-2.3-13.9-2.3-13.9-2.3V-191.8z"
			/>
		<path id="Path_243_4_" class="st6" d="M-695-212.6c2,3.1,8.2,19.3,9.2,23.1h9.2v-25.4C-682.7-215-689-214.2-695-212.6z"/>
	</g>
</g>
</svg>
