<?xml version="1.0" encoding="utf-8"?>
<!-- Generator: Adobe Illustrator 24.1.0, SVG Export Plug-In . SVG Version: 6.00 Build 0)  -->
<svg version="1.1" id="Layer_1" xmlns="http://www.w3.org/2000/svg" xmlns:xlink="http://www.w3.org/1999/xlink" x="0px" y="0px"
	 viewBox="0 0 140 140" style="enable-background:new 0 0 140 140;" xml:space="preserve">
<style type="text/css">
	.st0{fill:none;stroke:#FFFFFF;stroke-width:3;stroke-linecap:round;stroke-linejoin:round;}
	.st1{fill:#FFFFFF;}
	.st2{fill:none;stroke:#FFFFFF;stroke-width:2.9271;stroke-linecap:round;stroke-linejoin:round;}
	.st3{fill:#CCCCCB;}
	.st4{fill:none;stroke:#FFFFFF;}
	.st5{fill:#E4823F;}
	.st6{fill:none;stroke:#E4823C;stroke-width:3;stroke-linecap:round;stroke-linejoin:round;}
	.st7{fill:#FFFFFF;stroke:#E4823C;stroke-miterlimit:10;}
	.st8{fill:none;stroke:#E4823C;stroke-width:2.9271;stroke-linecap:round;stroke-linejoin:round;}
</style>
<circle id="Ellipse_106_2_" class="st5" cx="70" cy="70" r="58.5"/>
<g id="Group_344_6_" transform="translate(-342.422 -1818.422)">
	<g id="Group_343_6_" transform="translate(343.922 1819.922)">
		<g id="Group_342_6_">
			<line id="Line_55_6_" class="st0" x1="60.7" y1="56.5" x2="87.7" y2="56.5"/>
			<circle id="Ellipse_109_10_" class="st0" cx="51.6" cy="56" r="2.5"/>
			<line id="Line_56_6_" class="st2" x1="60.8" y1="67.6" x2="84.6" y2="67.6"/>
			<line id="Line_57_6_" class="st0" x1="60.8" y1="78.8" x2="74.8" y2="78.8"/>
			<circle id="Ellipse_111_10_" class="st0" cx="51.6" cy="78.2" r="2.5"/>
			<circle id="Ellipse_109_9_" class="st0" cx="51.6" cy="67.6" r="2.5"/>
			<circle id="Ellipse_111_9_" class="st0" cx="51.6" cy="89.9" r="2.5"/>
			<line id="Line_58_6_" class="st0" x1="60.8" y1="89.9" x2="71.8" y2="89.9"/>
			<path id="Path_221_6_" class="st0" d="M76.5,37.3h-4.9c-0.6-1.8-2.6-2.8-4.4-2.1c-1,0.4-1.8,1.1-2.1,2.1h-4.9
				c-2.6,0-4.7,2.1-4.7,4.7c0,0,0,0,0,0v2.3h25.7V42C81.2,39.4,79.1,37.3,76.5,37.3C76.5,37.3,76.5,37.3,76.5,37.3z"/>
			<line id="Line_59_6_" class="st0" x1="97" y1="56.9" x2="105.2" y2="65.1"/>
			<path id="Path_222_6_" class="st0" d="M74,78.8c4.9,0.7,8.7,4.5,9.4,9.4"/>
			<path id="Path_223_6_" class="st0" d="M92.6,60.2V44.9c0-1.6-1.3-2.9-2.9-2.9c0,0,0,0,0,0H81"/>
			<path id="Path_224_6_" class="st0" d="M55.6,42h-8.7c-1.6,0-2.9,1.3-2.9,2.9c0,0,0,0,0,0v54.3c0,1.6,1.3,2.9,2.9,2.9c0,0,0,0,0,0
				h43.3c1.6,0,2.9-1.3,2.9-2.9c0,0,0,0,0,0V78.9"/>
			<path id="Path_225_6_" class="st0" d="M71.3,90.6L73.6,79l27.1-26.3c1.1-1.1,2.7-1.8,4.3-1.8h0c3.3,0,6,2.7,6,6v0
				c0,1.6-0.6,3.1-1.8,4.3L82.9,88.3L71.3,90.6z"/>
		</g>
	</g>
</g>
</svg>
