<svg xmlns="http://www.w3.org/2000/svg" xmlns:xlink="http://www.w3.org/1999/xlink" viewBox="0 0 70 70"><defs><style>.cls-1,.cls-11{fill:none;}.cls-2{fill:#f2f2f2;stroke-width:0.4px;}.cls-10,.cls-11,.cls-2,.cls-5,.cls-9{stroke:#4d4d4d;}.cls-10,.cls-11,.cls-2,.cls-5,.cls-7,.cls-9{stroke-miterlimit:10;}.cls-3{clip-path:url(#clip-path);}.cls-10,.cls-4,.cls-7{fill:#4d4d4d;}.cls-5,.cls-8,.cls-9{fill:#fff;}.cls-11,.cls-5,.cls-7{stroke-linecap:round;}.cls-5,.cls-7{stroke-width:0.75px;}.cls-6{fill:#ccc;}.cls-7{stroke:#999;}.cls-9{fill-opacity:0.33;}.cls-11,.cls-9{stroke-width:1.05px;}.cls-10{stroke-width:0.7px;}.cls-12{fill:#999;}</style><clipPath id="clip-path"><path class="cls-1" d="M9.06,39.22c0-14.33,11.53-41.4,25.85-41.4s26,27.07,26,41.4a25.94,25.94,0,1,1-51.88,0Z"/></clipPath></defs><g id="BOT"><circle class="cls-2" cx="35" cy="39.38" r="25.89"/><g class="cls-3"><path class="cls-4" d="M23.17,33.27l.32-18.16c0-.4.65-1.77.18-1.76h0a5.77,5.77,0,0,0-5,4.69c-.38,4.32-.8,16.75-.45,20.25l3.16-.15C24.39,38.05,23.25,35.87,23.17,33.27Z"/><path class="cls-4" d="M48.58,33.62,44.84,15.19c0-.41.23-2.12.7-2.1a9.24,9.24,0,0,1,2.45.35c1,.35,4.87,2.66,5.07,5,.38,4.32.18,16.75-.52,20.25l-2.19-.15C47.36,38.4,48.5,36.22,48.58,33.62Z"/><path class="cls-4" d="M43,15.89l1.05.35c0-.41.66-2.12,1.13-2.1v-.7c2.23.07,7.35,1.75,7.87,5,.7,4.28.58,8.57,3.33,11.11l-3.59-.11c-1.68-.05-3.18-2.66-3.5-5.32A10.13,10.13,0,0,0,43,15.89Z"/><rect class="cls-5" x="30.18" y="37.56" width="10.17" height="12.27" rx="2.03"/><rect class="cls-5" x="18.81" y="15.12" width="32.62" height="24.84" rx="6.66"/><path class="cls-6" d="M21.24,32.8V20.94a6.87,6.87,0,0,1,2.38-5.18,6.53,6.53,0,0,0-4.42,6.16V33.16a6.51,6.51,0,0,0,6.5,6.5h2.41A6.89,6.89,0,0,1,21.24,32.8Z"/><path class="cls-6" d="M49,32.8V20.94a6.83,6.83,0,0,0-2.38-5.18,6.53,6.53,0,0,1,4.43,6.16V33.16a6.52,6.52,0,0,1-6.51,6.5H42.13A6.89,6.89,0,0,0,49,32.8Z"/><rect class="cls-7" x="13.73" y="22" width="5.09" height="9.58" rx="1.87"/><rect class="cls-5" x="14.32" y="22" width="4.49" height="8.98" rx="1.7"/><rect class="cls-7" x="51.43" y="22" width="5.09" height="9.58" rx="1.87" transform="translate(107.94 53.57) rotate(-180)"/><rect class="cls-5" x="51.43" y="22" width="4.49" height="8.98" rx="1.7" transform="translate(107.35 52.97) rotate(-180)"/><path class="cls-4" d="M29,16.31H45.36a1,1,0,0,0,1-1h0c0-2.6-1.64-4.39-4.7-4.7C35.87,10,26,9.13,22.7,5.84V10A6.3,6.3,0,0,0,29,16.31Z"/><path class="cls-4" d="M32.5,15.41H44.71a.78.78,0,0,0,.73-.84h0a3.74,3.74,0,0,0-3.51-4.05C37.62,10,30.25,9.23,27.79,6.4V10C27.79,13,29.9,15.41,32.5,15.41Z"/><circle class="cls-8" cx="26.59" cy="27.38" r="4.79"/><circle class="cls-8" cx="43.8" cy="27.23" r="4.79"/><path class="cls-9" d="M21,22.9H33.39A1.13,1.13,0,0,1,34.52,24v2.88a6.16,6.16,0,0,1-6.16,6.16H21a1.13,1.13,0,0,1-1.13-1.13V24A1.13,1.13,0,0,1,21,22.9Z"/><path class="cls-9" d="M36.64,22.9h7.8a5.95,5.95,0,0,1,5.95,5.95v3.31a.92.92,0,0,1-.92.92H36.64a.92.92,0,0,1-.92-.92V23.81a.92.92,0,0,1,.92-.92Z" transform="translate(86.1 55.96) rotate(-180)"/><rect class="cls-10" x="34.52" y="24.09" width="1.2" height="4.19" rx="0.6"/><rect class="cls-4" x="25.55" y="25.29" width="2.09" height="4.19" rx="0.97"/><rect class="cls-4" x="42.75" y="25.29" width="2.09" height="4.19" rx="0.97"/><path class="cls-11" d="M29.59,35.16a17.1,17.1,0,0,0,10.77,0"/><rect class="cls-4" x="23.3" y="18.71" width="6.69" height="1.48" rx="0.67" transform="translate(-3.49 6.03) rotate(-12.12)"/><rect class="cls-4" x="40.66" y="18.71" width="6.69" height="1.48" rx="0.67" transform="translate(82.94 47.71) rotate(-167.88)"/><circle class="cls-4" cx="16.48" cy="28.84" r="1.05"/><circle class="cls-4" cx="53.59" cy="28.84" r="1.05"/><path class="cls-5" d="M48.32,83.94H23.42a6.12,6.12,0,0,1-6.1-6.1l1.49-26.4c0-2.86,1.34-5.27,3.81-5.93a5.65,5.65,0,0,1,1.4-.17h23.4c3.36,0,5.21,2.74,5.21,6.1l1.79,26.4A6.12,6.12,0,0,1,48.32,83.94Z"/><path class="cls-4" d="M28.74,15.54l-1,.35c0-.41-3.55-2.55-4-2.54h0a5.77,5.77,0,0,0-5,4.69c-.38,4.32-.57,8.57-3.33,11.11L18.94,29c1.68-.05,3.19-2.66,3.51-5.32A10.1,10.1,0,0,1,28.74,15.54Z"/><path class="cls-6" d="M19.64,78l1.5-26.49c0-2.87,1.35-5.29,3.82-6a5.71,5.71,0,0,1,1.4-.17H24.2a5.71,5.71,0,0,0-1.4.17c-2.48.66-3.82,3.08-3.82,6L17.48,78a6.13,6.13,0,0,0,6.12,6.12h2.16A6.14,6.14,0,0,1,19.64,78Z"/><rect class="cls-5" x="48.21" y="52.82" width="23.04" height="7.14" rx="3.32" transform="translate(71.56 -24.9) rotate(54.93)"/><rect class="cls-5" x="49.41" y="74.36" width="23.04" height="7.14" rx="3.32" transform="translate(-37.78 84.47) rotate(-55.77)"/><rect class="cls-5" x="62.72" y="64.25" width="6.34" height="6.47" rx="1.89" transform="translate(73.99 161.46) rotate(-140.61)"/><rect class="cls-5" x="50.08" y="45.83" width="3.67" height="7.09" rx="1.37" transform="translate(109.53 91.97) rotate(172.92)"/><rect class="cls-5" x="0.93" y="52.82" width="23.04" height="7.14" rx="3.32" transform="translate(65.75 78.6) rotate(125.07)"/><rect class="cls-5" x="-0.27" y="74.36" width="23.04" height="7.14" rx="3.32" transform="translate(-46.86 131.07) rotate(-124.23)"/><path class="cls-6" d="M5.88,62.28,15.3,48.86a3.34,3.34,0,0,1,4.32-1,3.17,3.17,0,0,0-.52-.45l-.4-.28a3.33,3.33,0,0,0-4.63.81L4.65,61.36A3.34,3.34,0,0,0,5.46,66l.41.28.31.19A3.34,3.34,0,0,1,5.88,62.28Z"/><rect class="cls-5" x="3.12" y="64.25" width="6.34" height="6.47" rx="1.89" transform="translate(-41.4 19.32) rotate(-39.39)"/><rect class="cls-5" x="17.81" y="45.83" width="3.67" height="7.09" rx="1.37" transform="translate(6.24 -2.05) rotate(7.08)"/><path class="cls-12" d="M49.8,71.3h-.35a.39.39,0,0,0-.39.39v-.58s0-.07,0-.1v0s0-.06,0-.1h0l0-.1v0a1.19,1.19,0,0,0-.08-.2v0l-.06-.09h0l-.06-.09h0l-.07-.09h0s-.1-.11-.16-.16h0A1.44,1.44,0,0,0,48,69.8h0l-.13,0a1,1,0,0,0-.54-.93.94.94,0,0,0-.47-.17c-1-.12-2.69-.3-3.25-1v.46a2.62,2.62,0,0,1-1.17-.59v1a1.47,1.47,0,0,0,.6,1.18,1.51,1.51,0,0,0-1,.37h0c-.06,0-.11.11-.16.16h0l-.07.09h0l-.06.09h0l0,.09v0a1.19,1.19,0,0,0-.08.2v0l0,.1h0a.44.44,0,0,0,0,.1v0s0,.07,0,.1v.58a.39.39,0,0,0-.4-.39h-.34a.43.43,0,0,0-.43.43v1.34a.43.43,0,0,0,.43.43h.31a.43.43,0,0,0,.43-.43v.82h0a1.51,1.51,0,0,0,.55,1.18l.06.05.12.08a1.66,1.66,0,0,0,.27.13l.15,0a1.58,1.58,0,0,0,.38,0h4.43a1.53,1.53,0,0,0,1.53-1.53h0v-.82a.43.43,0,0,0,.43.43h.31a.43.43,0,0,0,.43-.43V71.73A.43.43,0,0,0,49.8,71.3Z"/><circle class="cls-4" cx="35.39" cy="65.6" r="9.8"/></g></g></svg>