<?xml version="1.0" encoding="utf-8"?>
<!-- Generator: Adobe Illustrator 24.1.0, SVG Export Plug-In . SVG Version: 6.00 Build 0)  -->
<svg version="1.1" id="Layer_1" xmlns="http://www.w3.org/2000/svg" xmlns:xlink="http://www.w3.org/1999/xlink" x="0px" y="0px"
	 viewBox="0 0 140 140" style="enable-background:new 0 0 140 140;" xml:space="preserve">
<style type="text/css">
	.st0{fill:none;stroke:#FFFFFF;stroke-width:3;stroke-linecap:round;stroke-linejoin:round;}
	.st1{fill:#FFFFFF;}
	.st2{fill:none;stroke:#FFFFFF;stroke-width:2.9271;stroke-linecap:round;stroke-linejoin:round;}
	.st3{fill:#CCCCCB;}
	.st4{fill:none;stroke:#FFFFFF;}
	.st5{fill:#E4823F;}
	.st6{fill:none;stroke:#E4823C;stroke-width:3;stroke-linecap:round;stroke-linejoin:round;}
	.st7{fill:#FFFFFF;stroke:#E4823C;stroke-miterlimit:10;}
	.st8{fill:none;stroke:#E4823C;stroke-width:2.9271;stroke-linecap:round;stroke-linejoin:round;}
</style>
<g id="Group_341_1_" transform="translate(-252 -1583)">
	<circle id="Ellipse_103_1_" class="st1" cx="322" cy="1653" r="58.5"/>
	<g id="Group_340_4_" transform="translate(677 1618.415)">
		<path id="Path_218-2_1_" class="st6" d="M-358.9,45.2l-5.4-1.3l-0.6-2.2c2-0.2,4-0.8,5.8-1.7c0,0-2.6-2-2.6-9.1s-2.2-7.8-3.3-7.8
			h-0.7c-0.8-1-2-1.5-3.3-1.3c-1.8,0-7.2,2-7.2,9.1s-2.6,9.1-2.6,9.1c1.8,0.9,3.8,1.5,5.8,1.7l-0.6,2.2l-5.4,1.3
			c-3,0.7-5.1,3.4-5.1,6.5l0,0h30.1l0,0C-353.8,48.6-355.9,46-358.9,45.2z"/>
		<g id="Group_337-2_1_" transform="translate(0 0)">
			<line id="Line_52-2_1_" class="st6" x1="-349.1" y1="28.1" x2="-327.9" y2="28.1"/>
			<line id="Line_53-2_1_" class="st6" x1="-349.1" y1="37.4" x2="-327.9" y2="37.4"/>
			<line id="Line_54-2_1_" class="st6" x1="-349.1" y1="46.7" x2="-327.9" y2="46.7"/>
			<path id="Path_219-2_1_" class="st6" d="M-360.8,17.1h-21.9c-3.2,0-5.9,2.7-5.8,5.9v29.7c0,3.2,2.6,5.9,5.8,5.9h55.3
				c3.2,0,5.9-2.7,5.8-5.9c0,0,0,0,0,0V23c0-3.2-2.6-5.9-5.8-5.9c0,0,0,0,0,0h-21.9"/>
			<path id="Path_220-2_1_" class="st6" d="M-360.8,11.3v8.1h11.6v-8.1c0-3.2-2.6-5.8-5.8-5.8c0,0,0,0,0,0l0,0
				C-358.2,5.5-360.8,8.1-360.8,11.3C-360.8,11.3-360.8,11.3-360.8,11.3z"/>
		</g>
		<circle id="Ellipse_101-2_1_" class="st7" cx="-355" cy="11.3" r="2.3"/>
	</g>
</g>
</svg>
