<?xml version="1.0" encoding="utf-8"?>
<!-- Generator: Adobe Illustrator 24.1.0, SVG Export Plug-In . SVG Version: 6.00 Build 0)  -->
<svg version="1.1" id="Layer_1" xmlns="http://www.w3.org/2000/svg" xmlns:xlink="http://www.w3.org/1999/xlink" x="0px" y="0px"
	 viewBox="0 0 140 140" style="enable-background:new 0 0 140 140;" xml:space="preserve">
<style type="text/css">
	.st0{fill:none;stroke:#FFFFFF;stroke-width:3;stroke-linecap:round;stroke-linejoin:round;}
	.st1{fill:#FFFFFF;}
	.st2{fill:none;stroke:#FFFFFF;stroke-width:2.9271;stroke-linecap:round;stroke-linejoin:round;}
	.st3{fill:#CCCCCB;}
	.st4{fill:none;stroke:#FFFFFF;}
	.st5{fill:#E4823F;}
	.st6{fill:none;stroke:#E4823C;stroke-width:3;stroke-linecap:round;stroke-linejoin:round;}
	.st7{fill:#FFFFFF;stroke:#E4823C;stroke-miterlimit:10;}
	.st8{fill:none;stroke:#E4823C;stroke-width:2.9271;stroke-linecap:round;stroke-linejoin:round;}
</style>
<circle id="Ellipse_107_2_" class="st5" cx="70" cy="70" r="58.5"/>
<g id="Group_364_5_" transform="translate(303.062 -1010.93)">
	<path id="Path_244_5_" class="st0" d="M-264.3,1111l1.2,1.2c3.1,2.8,7.6,3.2,10.4,0l25.4-28.9l-8.1-8.1l-28.9,25.4
		c-2.9,2.6-3.1,7-0.5,9.9C-264.6,1110.6-264.4,1110.8-264.3,1111z"/>
	
		<rect id="Rectangle_245_5_" x="-234.2" y="1060" transform="matrix(0.7071 -0.7071 0.7071 0.7071 -823.9352 155.3743)" class="st0" width="19.6" height="24.5"/>
	<path id="Path_245_5_" class="st0" d="M-209.1,1074.3l-13.2,13.2c-2,2-2,5.2,0,7.2l0,0c2.8,2.8,7.5,2.8,10.3,0l10.1-10.1
		c2.8-2.8,3.5-7.1,0-10.3h0C-203.9,1072.3-207.7,1072.8-209.1,1074.3z"/>
	<path id="Path_246_5_" class="st0" d="M-226.1,1056.7l-13.9,13.9c-2,2-5.1,1.4-7.1-0.5h0c-2.8-2.8-2.8-7.5,0-10.3l10.1-10.1
		c2.8-2.8,7.5-2.8,10.3,0l0,0C-224.7,1051.6-224.2,1054.7-226.1,1056.7z"/>
	<path id="Path_247_5_" class="st0" d="M-206.5,1107.5h-16.2c-3.2,0-6.9,3.7-6.9,6.9h30C-199.6,1111.2-203.3,1107.5-206.5,1107.5z"
		/>
</g>
</svg>
